<?xml version="1.0" encoding="utf-8"?>
<!-- Generator: Adobe Illustrator 19.0.0, SVG Export Plug-In . SVG Version: 6.00 Build 0)  -->
<svg version="1.1" id="Layer_1" xmlns="http://www.w3.org/2000/svg" xmlns:xlink="http://www.w3.org/1999/xlink" x="0px" y="0px"
	 viewBox="0 0 30 30" style="enable-background:new 0 0 30 30;" xml:space="preserve">
<style type="text/css">
	.st0{fill:#808080;}
	.st1{clip-path:url(#XMLID_2_);}
	.st2{fill:none;}
</style>
<g id="XMLID_3_">
	<g id="XMLID_122_">
		<g id="XMLID_209_">
			<path id="XMLID_212_" class="st0" d="M18.3,27H18c-0.3,0-0.5-0.2-0.5-0.4l-0.4-3.9c0-0.6,0.5-1.1,1.1-1.1h2.6v-0.9
				c0-0.2,0.1-0.3,0.3-0.3s0.3,0.1,0.3,0.3v1.5h-3.2c-0.3,0-0.5,0.2-0.5,0.5l0.4,3.8h0.2l0.4-3.2h3.1c0.5,0,0.9-0.4,0.9-0.9v-4.5
				c0-0.1-0.1-0.2-0.2-0.2h-0.8c-0.1,0-0.2,0.1-0.2,0.1l-0.9,1.9C20.3,19.8,20,20,19.7,20h-2.3c-0.2,0-0.3-0.1-0.3-0.3
				c0-0.2,0.1-0.3,0.3-0.3h2.3c0.1,0,0.2-0.1,0.2-0.1l0.9-1.9c0.1-0.3,0.4-0.5,0.8-0.5h0.8c0.5,0,0.8,0.4,0.8,0.8v4.5
				c0,0.8-0.7,1.5-1.5,1.5h-2.6l-0.4,2.8C18.8,26.8,18.6,27,18.3,27z"/>
		</g>
		<g id="XMLID_185_">
			<path id="XMLID_188_" class="st0" d="M24,27c-0.2,0-0.3-0.1-0.3-0.3v-7.8c0-0.2,0.1-0.3,0.3-0.3c0.2,0,0.3,0.1,0.3,0.3v7.8
				C24.3,26.8,24.2,27,24,27z"/>
		</g>
		<g id="XMLID_178_">
			<path id="XMLID_179_" class="st0" d="M20.1,27.1c-0.2,0-0.3-0.1-0.3-0.3V25c0-0.4,0.3-0.7,0.7-0.7H24c0.2,0,0.3,0.1,0.3,0.3
				c0,0.2-0.1,0.3-0.3,0.3h-3.5c-0.1,0-0.1,0.1-0.1,0.1v1.7C20.4,26.9,20.3,27.1,20.1,27.1z"/>
		</g>
		<g id="XMLID_161_">
			<path id="XMLID_162_" class="st0" d="M13.9,27c-0.2,0-0.3-0.1-0.3-0.3v-5.2c0-0.6,0.5-1,1-1h3.8c0.2,0,0.3,0.1,0.3,0.3
				c0,0.2-0.1,0.3-0.3,0.3h-3.8c-0.2,0-0.4,0.2-0.4,0.4v5.2C14.2,26.8,14,27,13.9,27z"/>
		</g>
		<g id="XMLID_124_">
			<path id="XMLID_132_" class="st0" d="M21.9,16.8c-1,0-1.9-0.8-1.9-1.9s0.8-1.9,1.9-1.9s1.9,0.8,1.9,1.9S22.9,16.8,21.9,16.8z
				 M21.9,13.6c-0.7,0-1.3,0.6-1.3,1.3c0,0.7,0.6,1.3,1.3,1.3s1.3-0.6,1.3-1.3C23.1,14.2,22.6,13.6,21.9,13.6z"/>
		</g>
	</g>
	<g id="XMLID_87_">
		<path id="XMLID_88_" class="st0" d="M7.6,24.6c-0.1,0-0.2,0-0.2-0.1c-0.1-0.1-0.1-0.3,0-0.4L23.8,7.7c0.1-0.1,0.3-0.1,0.4,0
			c0.1,0.1,0.1,0.3,0,0.4L7.8,24.5C7.7,24.6,7.6,24.6,7.6,24.6z"/>
	</g>
	<g id="XMLID_12_">
		<defs>
			<polygon id="XMLID_14_" points="22.4,5 4.9,5 4.9,22 7.9,21.7 22.5,7.1 			"/>
		</defs>
		<clipPath id="XMLID_2_">
			<use xlink:href="#XMLID_14_"  style="overflow:visible;"/>
		</clipPath>
		<g id="XMLID_15_" class="st1">
			<g id="XMLID_82_">
				<rect id="XMLID_83_" x="4.9" y="5" class="st2" width="17.5" height="17"/>
			</g>
			<g id="XMLID_16_">
				<g id="XMLID_47_">
					<g id="XMLID_66_">
						<path id="XMLID_67_" class="st0" d="M8.4,9.2c-0.9,0-1.7-0.8-1.7-1.7s0.8-1.7,1.7-1.7s1.7,0.8,1.7,1.7S9.4,9.2,8.4,9.2z
							 M8.4,6.4c-0.6,0-1.1,0.5-1.1,1.1s0.5,1.1,1.1,1.1s1.1-0.5,1.1-1.1S9,6.4,8.4,6.4z"/>
					</g>
					<g id="XMLID_62_">
						<path id="XMLID_63_" class="st0" d="M9.7,21.8H9.3c-0.3,0-0.5-0.2-0.5-0.5l-0.5-5.1c0-0.2,0.1-0.3,0.3-0.3
							c0.2,0,0.3,0.1,0.3,0.3l0.5,5.1h0.3v-9.8c0-0.2,0.1-0.3,0.3-0.3s0.3,0.1,0.3,0.3v9.8C10.2,21.5,10,21.8,9.7,21.8z"/>
					</g>
					<g id="XMLID_56_">
						<path id="XMLID_59_" class="st0" d="M10.3,16.4c-0.1,0-0.2-0.1-0.3-0.1c-0.1-0.1,0-0.3,0.1-0.4l0.3-0.2c0,0,0,0,0-0.1v-4.5
							c0-0.7-0.5-1.2-1.2-1.2H8.4c-0.2,0-0.3-0.1-0.3-0.3s0.1-0.3,0.3-0.3h0.9c1,0,1.8,0.8,1.8,1.8v4.5c0,0.2-0.1,0.5-0.3,0.6
							l-0.3,0.2C10.4,16.4,10.4,16.4,10.3,16.4z"/>
					</g>
					<g id="XMLID_48_">
						<g id="XMLID_52_">
							<path id="XMLID_55_" class="st0" d="M7.5,21.8H7.1c-0.3,0-0.5-0.2-0.5-0.5v-9.8c0-0.2,0.1-0.3,0.3-0.3c0.2,0,0.3,0.1,0.3,0.3
								v9.8h0.3L8,16.1c0-0.2,0.2-0.3,0.3-0.3c0.2,0,0.3,0.2,0.3,0.3l-0.5,5.1C8,21.6,7.8,21.8,7.5,21.8z"/>
						</g>
						<g id="XMLID_49_">
							<path id="XMLID_50_" class="st0" d="M6.5,16.4c-0.1,0-0.1,0-0.2,0l-0.3-0.2c-0.2-0.1-0.3-0.3-0.3-0.6v-4.5
								c0-1,0.8-1.8,1.8-1.8h0.9c0.2,0,0.3,0.1,0.3,0.3S8.6,9.9,8.4,9.9H7.5c-0.7,0-1.2,0.5-1.2,1.2v4.5c0,0,0,0.1,0,0.1l0.3,0.2
								c0.1,0.1,0.2,0.3,0.1,0.4C6.7,16.3,6.6,16.4,6.5,16.4z"/>
						</g>
					</g>
				</g>
				<g id="XMLID_31_">
					<g id="XMLID_43_">
						<path id="XMLID_44_" class="st0" d="M13.9,9.2c-0.9,0-1.7-0.8-1.7-1.7s0.8-1.7,1.7-1.7s1.7,0.8,1.7,1.7S14.8,9.2,13.9,9.2z
							 M13.9,6.4c-0.6,0-1.1,0.5-1.1,1.1s0.5,1.1,1.1,1.1S15,8.1,15,7.5S14.5,6.4,13.9,6.4z"/>
					</g>
					<g id="XMLID_41_">
						<path id="XMLID_42_" class="st0" d="M15.1,21.8h-0.4c-0.3,0-0.5-0.2-0.5-0.5l-0.5-5.1c0-0.2,0.1-0.3,0.3-0.3
							c0.2,0,0.3,0.1,0.3,0.3l0.5,5.1h0.3v-9.8c0-0.2,0.1-0.3,0.3-0.3s0.3,0.1,0.3,0.3v9.8C15.7,21.5,15.4,21.8,15.1,21.8z"/>
					</g>
					<g id="XMLID_38_">
						<path id="XMLID_39_" class="st0" d="M15.8,16.4c-0.1,0-0.2-0.1-0.3-0.1c-0.1-0.1,0-0.3,0.1-0.4l0.3-0.2c0,0,0,0,0-0.1v-4.5
							c0-0.7-0.5-1.2-1.2-1.2h-0.9c-0.2,0-0.3-0.1-0.3-0.3s0.1-0.3,0.3-0.3h0.9c1,0,1.8,0.8,1.8,1.8v4.5c0,0.2-0.1,0.5-0.3,0.6
							l-0.3,0.2C15.9,16.4,15.8,16.4,15.8,16.4z"/>
					</g>
					<g id="XMLID_32_">
						<g id="XMLID_35_">
							<path id="XMLID_36_" class="st0" d="M13,21.8h-0.4c-0.3,0-0.5-0.2-0.5-0.5v-9.8c0-0.2,0.1-0.3,0.3-0.3s0.3,0.1,0.3,0.3v9.8
								h0.3l0.5-5.1c0-0.2,0.2-0.3,0.3-0.3c0.2,0,0.3,0.2,0.3,0.3l-0.5,5.1C13.5,21.6,13.3,21.8,13,21.8z"/>
						</g>
						<g id="XMLID_33_">
							<path id="XMLID_34_" class="st0" d="M12,16.4c-0.1,0-0.1,0-0.2,0l-0.3-0.2c-0.2-0.1-0.3-0.3-0.3-0.6v-4.5
								c0-1,0.8-1.8,1.8-1.8h0.9c0.2,0,0.3,0.1,0.3,0.3S14,9.9,13.9,9.9H13c-0.7,0-1.2,0.5-1.2,1.2v4.5c0,0,0,0.1,0,0.1l0.3,0.2
								c0.1,0.1,0.2,0.3,0.1,0.4C12.2,16.3,12.1,16.4,12,16.4z"/>
						</g>
					</g>
				</g>
				<g id="XMLID_17_">
					<g id="XMLID_27_">
						<path id="XMLID_28_" class="st0" d="M19.3,9.2c-0.9,0-1.7-0.8-1.7-1.7s0.8-1.7,1.7-1.7c0.9,0,1.7,0.8,1.7,1.7
							S20.3,9.2,19.3,9.2z M19.3,6.4c-0.6,0-1.1,0.5-1.1,1.1s0.5,1.1,1.1,1.1c0.6,0,1.1-0.5,1.1-1.1S19.9,6.4,19.3,6.4z"/>
					</g>
					<g id="XMLID_25_">
						<path id="XMLID_26_" class="st0" d="M20.6,21.8h-0.4c-0.3,0-0.5-0.2-0.5-0.5l-0.5-5.1c0-0.2,0.1-0.3,0.3-0.3
							c0.2,0,0.3,0.1,0.3,0.3l0.5,5.1h0.3v-9.8c0-0.2,0.1-0.3,0.3-0.3c0.2,0,0.3,0.1,0.3,0.3v9.8C21.1,21.5,20.9,21.8,20.6,21.8z"/>
					</g>
					<g id="XMLID_23_">
						<path id="XMLID_24_" class="st0" d="M21.2,16.4c-0.1,0-0.2-0.1-0.3-0.1c-0.1-0.1,0-0.3,0.1-0.4l0.3-0.2c0,0,0,0,0-0.1v-4.5
							c0-0.7-0.5-1.2-1.2-1.2h-0.9c-0.2,0-0.3-0.1-0.3-0.3s0.1-0.3,0.3-0.3h0.9c1,0,1.8,0.8,1.8,1.8v4.5c0,0.2-0.1,0.5-0.3,0.6
							l-0.3,0.2C21.3,16.4,21.3,16.4,21.2,16.4z"/>
					</g>
					<g id="XMLID_18_">
						<g id="XMLID_21_">
							<path id="XMLID_22_" class="st0" d="M18.4,21.8H18c-0.3,0-0.5-0.2-0.5-0.5v-9.8c0-0.2,0.1-0.3,0.3-0.3c0.2,0,0.3,0.1,0.3,0.3
								v9.8h0.3l0.5-5.1c0-0.2,0.2-0.3,0.3-0.3c0.2,0,0.3,0.2,0.3,0.3L19,21.3C19,21.6,18.7,21.8,18.4,21.8z"/>
						</g>
						<g id="XMLID_19_">
							<path id="XMLID_20_" class="st0" d="M17.4,16.4c-0.1,0-0.1,0-0.2,0L17,16.2c-0.2-0.1-0.3-0.3-0.3-0.6v-4.5
								c0-1,0.8-1.8,1.8-1.8h0.9c0.2,0,0.3,0.1,0.3,0.3s-0.1,0.3-0.3,0.3h-0.9c-0.7,0-1.2,0.5-1.2,1.2v4.5c0,0,0,0.1,0,0.1l0.3,0.2
								c0.1,0.1,0.2,0.3,0.1,0.4C17.6,16.3,17.5,16.4,17.4,16.4z"/>
						</g>
					</g>
				</g>
			</g>
		</g>
	</g>
</g>
</svg>
