<?xml version="1.0" encoding="utf-8"?>
<!-- Generator: Adobe Illustrator 19.0.0, SVG Export Plug-In . SVG Version: 6.00 Build 0)  -->
<svg version="1.1" id="Layer_1" xmlns="http://www.w3.org/2000/svg" xmlns:xlink="http://www.w3.org/1999/xlink" x="0px" y="0px"
	 viewBox="0 0 30 30" style="enable-background:new 0 0 30 30;" xml:space="preserve">
<style type="text/css">
	.st0{fill:#808080;}
</style>
<g id="XMLID_214_">
	<g id="XMLID_252_">
		<g id="XMLID_268_">
			<path id="XMLID_269_" class="st0" d="M17.5,12.3c-0.7,0-1.6-1.9-1.6-1.9c-0.3-0.7-0.2-1.5,0.4-1.9c0.5-0.4,1.2-0.7,1.5-0.7
				c0.2-0.3,0.6-1.4,0.4-1.7c-0.4-0.5-0.4-1.3-0.4-1.7c-0.6-0.1-1.3-0.2-1.9-0.2c-4.1,0-7.8,2.8-9,6.8c0,0.2-0.2,0.3-0.4,0.2
				c-0.2,0-0.3-0.2-0.2-0.4c1.2-4.2,5.2-7.2,9.6-7.2c0.8,0,1.5,0.1,2.3,0.3c0.1,0,0.2,0.2,0.2,0.3c0,0.3,0,1.2,0.3,1.6
				c0.5,0.7-0.2,2.1-0.2,2.2c-0.2,0.4-0.3,0.5-0.5,0.5h0c-0.1,0-0.7,0.2-1.2,0.6c-0.3,0.3-0.4,0.8-0.2,1.2c0.4,0.8,0.9,1.4,1.1,1.6
				c0.4-0.1,0.8-0.9,1.3-1.9c0,0,0,0,0,0c0.1-0.1,0.3-0.5,0.7-0.5c0,0,0,0,0,0c0.5,0,0.8,0.5,1.2,1.2c0.3,0.5,0.7,1.1,1,1.1
				c1.9-0.1,2.8-0.5,3-0.7c-0.8-2.8-3-5.1-5.8-6.1c-0.2-0.1-0.2-0.2-0.2-0.4c0.1-0.2,0.2-0.2,0.4-0.2c3,1.1,5.4,3.6,6.2,6.7
				c0,0.1,0,0.2-0.1,0.3c-0.1,0.1-0.8,0.8-3.6,1c-0.7,0-1.1-0.7-1.5-1.4c-0.2-0.3-0.5-0.9-0.7-0.9l0,0c0,0-0.1,0-0.2,0.2
				C18.6,11.3,18.2,12.2,17.5,12.3C17.5,12.3,17.5,12.3,17.5,12.3z"/>
		</g>
		<g id="XMLID_266_">
			<path id="XMLID_267_" class="st0" d="M15.7,23.4c0,0-0.1,0-0.1,0c-0.1,0-2.7-1.1-2.7-3.1c0-0.8,0.2-1.3,0.3-1.8
				c0.2-0.7,0.3-1.1-0.2-1.9l-0.1-0.2c-0.9-1.2-1.1-1.5-0.6-2.6c0.2-0.4,0.8-1.5,0.5-2c-0.1-0.2-0.3-0.3-0.5-0.3
				c-0.6-0.1-0.8,0-0.9,0.1c-0.1,0.1-0.1,0.2-0.1,0.2c0,0,0.4,3.1-2.4,3.9c0,0-0.1,0-0.1,0h0c-0.1,0-0.5,0-0.8-0.4
				c-0.3-0.5-0.4-1.2-0.1-2.3l-1.6-0.4c0,0.2,0,0.5,0,0.7c0,4.2,2.9,7.9,6.9,9c0.2,0,0.3,0.2,0.2,0.4c0,0.2-0.2,0.3-0.4,0.2
				c-4.4-1.2-7.4-5.1-7.4-9.6c0-0.4,0-0.8,0.1-1.1c0-0.1,0.1-0.2,0.1-0.2c0.1-0.1,0.2-0.1,0.2,0l2,0.5c0.2,0,0.3,0.1,0.4,0.3
				c0.1,0.1,0.1,0.3,0.1,0.5c-0.3,1.1-0.2,1.6,0,1.8c0.1,0.1,0.2,0.2,0.2,0.2c2.2-0.7,1.9-3.1,1.9-3.2c0-0.1-0.1-0.5,0.3-0.8
				c0.3-0.3,0.8-0.4,1.4-0.2c0.5,0.1,0.8,0.3,1,0.7c0.4,0.7-0.1,1.7-0.5,2.5c-0.4,0.7-0.4,0.7,0.5,1.9l0.1,0.2
				c0.7,1,0.5,1.7,0.3,2.4c-0.1,0.4-0.3,1-0.3,1.6c0,1.5,1.9,2.4,2.2,2.5c5.1,0,9.3-4.2,9.3-9.3c0-0.4,0-0.7-0.1-1.1
				c0-0.2,0.1-0.3,0.3-0.3c0.2,0,0.3,0.1,0.3,0.3c0,0.4,0.1,0.7,0.1,1.1C25.7,18.9,21.2,23.4,15.7,23.4z"/>
		</g>
		<g id="XMLID_262_">
			<path id="XMLID_263_" class="st0" d="M19.6,17.5c-0.5,0-0.9-0.3-1.2-0.7c-0.2-0.2-0.4-0.4-0.6-0.5c-0.4-0.2-0.7-0.5-0.7-0.8
				c0-0.2,0.1-0.4,0.3-0.6c0.2-0.1,0.4-0.1,0.7-0.2c0.2,0,0.6,0,0.7-0.2c0.3-0.4,0.9-0.6,1-0.6c1-0.5,2-0.6,2.6-0.2
				c0.3,0.2,0.4,0.5,0.4,0.8c0,0.4-0.3,0.7-0.5,0.9c-0.2,0.2-0.4,0.4-0.6,0.7c-0.3,1-1.1,1.2-1.7,1.3l-0.1,0
				C19.7,17.5,19.6,17.5,19.6,17.5z M17.6,15.5c0,0,0,0.1,0.4,0.3c0.3,0.1,0.5,0.3,0.7,0.5c0.3,0.3,0.6,0.6,0.9,0.5l0.1,0
				c0.6-0.1,1.1-0.2,1.3-0.9c0.2-0.5,0.5-0.8,0.8-1c0.2-0.2,0.3-0.3,0.3-0.4c0-0.1,0-0.2-0.2-0.2c-0.3-0.2-1-0.2-2,0.3c0,0,0,0,0,0
				c-0.1,0.1-0.6,0.2-0.8,0.5c-0.3,0.3-0.7,0.3-1.1,0.3C17.9,15.4,17.7,15.4,17.6,15.5C17.7,15.5,17.6,15.5,17.6,15.5L17.6,15.5z"/>
		</g>
		<g id="XMLID_258_">
			<path id="XMLID_259_" class="st0" d="M15.6,21.5c-0.1,0-0.2,0-0.3-0.1c-0.3-0.1-0.6-0.5-0.6-0.9c0-0.6,0.7-1.2,0.9-1.3
				c0,0,0.1,0,0.1-0.1c0.4-0.1,0.7,0.1,0.9,0.5c0.2,0.5,0.1,1.2-0.3,1.6C16.1,21.4,15.8,21.5,15.6,21.5z M15.8,19.8
				c-0.2,0.2-0.6,0.5-0.5,0.7c0,0.1,0.1,0.3,0.2,0.3c0.1,0.1,0.3,0,0.4-0.1c0.2-0.2,0.3-0.6,0.2-0.8C16,19.8,15.9,19.8,15.8,19.8
				L15.8,19.8z"/>
		</g>
		<g id="XMLID_253_">
			<g id="XMLID_256_">
				<path id="XMLID_257_" class="st0" d="M15.7,24.8c-1,0-2-0.1-2.9-0.4c-5-1.3-8.5-5.9-8.5-11c0-0.2,0.1-0.3,0.3-0.3
					s0.3,0.1,0.3,0.3c0,4.9,3.3,9.2,8,10.4c0.9,0.2,1.8,0.4,2.8,0.4c2.4,0,4.7-0.8,6.6-2.3c0.1-0.1,0.3-0.1,0.4,0.1
					c0.1,0.1,0.1,0.3-0.1,0.4C20.7,24,18.3,24.8,15.7,24.8z"/>
			</g>
			<g id="XMLID_254_">
				<path id="XMLID_255_" class="st0" d="M15.6,26.5c-0.2,0-0.3-0.1-0.3-0.3v-1.7c0-0.2,0.1-0.3,0.3-0.3s0.3,0.1,0.3,0.3v1.7
					C15.9,26.4,15.8,26.5,15.6,26.5z"/>
			</g>
		</g>
	</g>
</g>
</svg>
