<svg height="512pt" viewBox="0 0 512.00002 512" width="512pt" xmlns="http://www.w3.org/2000/svg"><path d="m302.550781 91.089844h-30v-60.550782h-38.699219v60.550782h-30v-60.550782h-38.703124v60.550782h-30v-60.550782h-38.699219v60.550782h-30v-60.550782h-66.449219v481.460938h369v-481.460938h-66.449219zm-198.671875 315.109375-32.597656-38.96875 23.007812-19.25 12.691407 15.167969 31.097656-27.867188 20.023437 22.339844zm0-86.25-32.597656-38.980469 23.007812-19.25 12.691407 15.171875 31.097656-27.871094 20.023437 22.339844zm0-86.257813-32.597656-38.980468 23.007812-19.25 12.691407 15.167968 31.097656-27.867187 20.023437 22.339843zm192.761719 155.828125h-115.96875v-30h115.96875zm0-86.257812h-115.96875v-30h115.96875zm0-86.261719h-115.96875v-30h115.96875zm0 0"/><path d="m66.449219 0h30v30.539062h-30zm0 0"/><path d="m135.148438 0h30v30.539062h-30zm0 0"/><path d="m203.851562 0h30v30.539062h-30zm0 0"/><path d="m272.550781 0h30v30.539062h-30zm0 0"/><path d="m404.4375 26.480469h107.5625v82.109375h-107.5625zm0 0"/><path d="m404.4375 439.203125 44.925781 72.796875h17.707031l44.929688-72.796875v-26.1875h-107.5625zm0 0"/><path d="m404.4375 138.589844h107.5625v244.425781h-107.5625zm0 0"/></svg>