<?xml version="1.0" encoding="utf-8"?>
<!-- Generator: Adobe Illustrator 19.0.0, SVG Export Plug-In . SVG Version: 6.00 Build 0)  -->
<svg version="1.1" id="Layer_1" xmlns="http://www.w3.org/2000/svg" xmlns:xlink="http://www.w3.org/1999/xlink" x="0px" y="0px"
	 viewBox="0 0 30 30" style="enable-background:new 0 0 30 30;" xml:space="preserve">
<style type="text/css">
	.st0{fill:#808080;}
</style>
<g id="XMLID_2_">
	<g id="XMLID_142_">
		<g id="XMLID_147_">
			<path id="XMLID_148_" class="st0" d="M3.6,21.6H2.3c-0.7,0-1.3-0.6-1.3-1.3V9.8c0-0.7,0.6-1.3,1.3-1.3h4l-1,0.7
				C4.9,9.4,4.8,9.7,4.9,10c0,0.1,0.1,0.1,0.1,0.2l0,0.1l0,0.1c0,0,0,0,0,0.1c0,0.2,0.1,0.4,0.2,0.5L5.4,11l-0.3,6.8
				c0,0,0,0.1,0,0.1l0,0.1L5,18.2c-0.1,0.2-0.2,0.4-0.2,0.6c0,0,0,0.1,0,0.1l0,0.1l-0.1,0.1c-0.2,0.2-0.4,0.4-0.4,0.6l0,0.2l-0.2,0
				c-0.5,0-0.8,0.4-0.8,0.9c0,0.1,0,0.3,0.1,0.4L3.6,21.6z M2.2,9C1.7,9,1.4,9.3,1.4,9.8v10.5c0,0.5,0.4,0.9,0.9,0.9H3
				c0-0.1,0-0.2,0-0.3c0-0.6,0.4-1.2,1-1.3C4,19.3,4.2,19,4.4,18.9c0,0,0,0,0-0.1c0-0.3,0.1-0.6,0.2-0.8c0,0,0-0.1,0-0.1l0.3-6.6
				c-0.2-0.2-0.3-0.5-0.3-0.8c0,0,0,0,0,0c0-0.1-0.1-0.2-0.1-0.3C4.4,9.7,4.5,9.3,4.8,9H2.2z"/>
		</g>
		<g id="XMLID_143_">
			<path id="XMLID_144_" class="st0" d="M27.5,21.6h-1.1l0.2-0.3c0.1-0.1,0.1-0.3,0.1-0.4c0-0.5-0.4-0.9-0.8-0.9l-0.2,0l0-0.2
				c0-0.3-0.2-0.6-0.5-0.7L25.1,19l0-0.1c0,0,0-0.1,0-0.1c0-0.2-0.1-0.4-0.2-0.6l-0.1-0.1l0-0.1c0,0,0-0.1,0-0.1L24.5,11l0.1-0.1
				c0.2-0.1,0.2-0.3,0.2-0.5c0,0,0-0.1,0-0.1l0-0.1l0-0.1c0,0,0-0.1,0.1-0.1c0.1-0.3,0-0.6-0.3-0.8l-1-0.7h3.9
				c0.8,0,1.5,0.7,1.5,1.5v10C29.1,20.9,28.4,21.6,27.5,21.6z M27,21.2h0.4c0.6,0,1.2-0.5,1.2-1.2v-10c0-0.6-0.5-1.1-1.1-1.1H25
				c0.3,0.3,0.5,0.8,0.3,1.2c0,0.1,0,0.1-0.1,0.2c0,0,0,0.1,0,0.1c0,0.3-0.1,0.6-0.3,0.8l0.3,6.6c0,0,0,0.1,0,0.1
				c0.2,0.2,0.2,0.5,0.2,0.8c0.3,0.2,0.5,0.5,0.5,0.8c0.6,0.1,1,0.7,1,1.3C27.1,21,27.1,21.1,27,21.2z"/>
		</g>
	</g>
	<g id="XMLID_8_">
		<g id="XMLID_9_">
			<g id="XMLID_138_">
				<path id="XMLID_139_" class="st0" d="M23.4,10.4H6.5C6.2,10.4,6,10.2,6,10C5.9,9.8,6,9.5,6.2,9.4L13.9,4c0.6-0.4,1.5-0.4,2.1,0
					l7.7,5.4c0.2,0.1,0.3,0.4,0.2,0.6C23.8,10.2,23.6,10.4,23.4,10.4z M14.9,4.1c-0.3,0-0.6,0.1-0.8,0.2L6.4,9.8c0,0,0,0.1,0,0.1
					c0,0,0,0.1,0.1,0.1h16.9c0.1,0,0.1,0,0.1-0.1c0,0,0-0.1,0-0.1l-7.7-5.4C15.5,4.2,15.2,4.1,14.9,4.1z"/>
			</g>
			<g id="XMLID_127_">
				<g id="XMLID_133_">
					<path id="XMLID_134_" class="st0" d="M7.9,18.5H6.7c-0.1,0-0.3-0.1-0.4-0.2c-0.1-0.1-0.2-0.2-0.1-0.4L6.4,11
						c0-0.3,0.2-0.5,0.5-0.5h0.7c0.3,0,0.5,0.2,0.5,0.5l0.3,6.9c0,0.1,0,0.3-0.1,0.4C8.2,18.4,8.1,18.5,7.9,18.5z M7,11
						C6.9,11,6.9,11,7,11l-0.4,7c0,0,0,0.1,0,0.1s0,0,0.1,0h1.3C8,18,8,18,8,18c0,0,0,0,0-0.1l-0.3-6.9c0,0,0-0.1-0.1-0.1H7z"/>
				</g>
				<g id="XMLID_128_">
					<path id="XMLID_129_" class="st0" d="M8,19.6H6.6c-0.4,0-0.7-0.3-0.7-0.7v-0.2c0-0.4,0.3-0.7,0.7-0.7H8c0.4,0,0.7,0.3,0.7,0.7
						v0.2C8.7,19.3,8.4,19.6,8,19.6z M6.6,18.5c-0.2,0-0.3,0.1-0.3,0.3v0.2c0,0.2,0.1,0.3,0.3,0.3H8c0.2,0,0.3-0.1,0.3-0.3v-0.2
						c0-0.2-0.1-0.3-0.3-0.3H6.6z"/>
				</g>
			</g>
			<g id="XMLID_116_">
				<g id="XMLID_121_">
					<path id="XMLID_123_" class="st0" d="M13,18.5h-1.3c-0.1,0-0.3-0.1-0.4-0.2c-0.1-0.1-0.2-0.2-0.1-0.4l0.3-6.9
						c0-0.3,0.2-0.5,0.5-0.5h0.7c0.3,0,0.5,0.2,0.5,0.5l0.3,6.9c0,0.1,0,0.3-0.1,0.4C13.3,18.4,13.2,18.5,13,18.5z M12.1,11
						C12,11,12,11,12.1,11l-0.4,7c0,0,0,0.1,0,0.1c0,0,0,0,0.1,0H13c0,0,0.1,0,0.1,0c0,0,0,0,0-0.1l-0.3-6.9c0,0,0-0.1-0.1-0.1H12.1
						z"/>
				</g>
				<g id="XMLID_117_">
					<path id="XMLID_118_" class="st0" d="M13.1,19.6h-1.4c-0.4,0-0.7-0.3-0.7-0.7v-0.2c0-0.4,0.3-0.7,0.7-0.7h1.4
						c0.4,0,0.7,0.3,0.7,0.7v0.2C13.8,19.3,13.5,19.6,13.1,19.6z M11.7,18.5c-0.2,0-0.3,0.1-0.3,0.3v0.2c0,0.2,0.1,0.3,0.3,0.3h1.4
						c0.2,0,0.3-0.1,0.3-0.3v-0.2c0-0.2-0.1-0.3-0.3-0.3H11.7z"/>
				</g>
			</g>
			<g id="XMLID_107_">
				<g id="XMLID_112_">
					<path id="XMLID_113_" class="st0" d="M18.1,18.5h-1.3c-0.1,0-0.3-0.1-0.4-0.2c-0.1-0.1-0.2-0.2-0.1-0.4l0.3-6.9
						c0-0.3,0.2-0.5,0.5-0.5h0.7c0.3,0,0.5,0.2,0.5,0.5l0.3,6.9c0,0.1,0,0.3-0.1,0.4C18.4,18.4,18.3,18.5,18.1,18.5z M17.2,11
						C17.1,11,17.1,11,17.2,11l-0.4,7c0,0,0,0.1,0,0.1s0,0,0.1,0h1.3c0,0,0.1,0,0.1,0s0,0,0-0.1l-0.3-6.9c0,0,0-0.1-0.1-0.1H17.2z"
						/>
				</g>
				<g id="XMLID_108_">
					<path id="XMLID_109_" class="st0" d="M18.2,19.6h-1.4c-0.4,0-0.7-0.3-0.7-0.7v-0.2c0-0.4,0.3-0.7,0.7-0.7h1.4
						c0.4,0,0.7,0.3,0.7,0.7v0.2C18.9,19.3,18.6,19.6,18.2,19.6z M16.8,18.5c-0.2,0-0.3,0.1-0.3,0.3v0.2c0,0.2,0.1,0.3,0.3,0.3h1.4
						c0.2,0,0.3-0.1,0.3-0.3v-0.2c0-0.2-0.1-0.3-0.3-0.3H16.8z"/>
				</g>
			</g>
			<g id="XMLID_61_">
				<g id="XMLID_86_">
					<path id="XMLID_89_" class="st0" d="M23.2,18.5H22c-0.1,0-0.3-0.1-0.4-0.2c-0.1-0.1-0.2-0.2-0.1-0.4l0.3-6.9
						c0-0.3,0.2-0.5,0.5-0.5h0.7c0.3,0,0.5,0.2,0.5,0.5l0.3,6.9c0,0.1,0,0.3-0.1,0.4C23.5,18.4,23.4,18.5,23.2,18.5z M22.2,11
						C22.2,11,22.2,11,22.2,11l-0.4,7c0,0,0,0.1,0,0.1c0,0,0,0,0.1,0h1.3c0,0,0.1,0,0.1,0c0,0,0,0,0-0.1L23,11.1c0,0,0-0.1-0.1-0.1
						H22.2z"/>
				</g>
				<g id="XMLID_73_">
					<path id="XMLID_74_" class="st0" d="M23.3,19.6h-1.4c-0.4,0-0.7-0.3-0.7-0.7v-0.2c0-0.4,0.3-0.7,0.7-0.7h1.4
						c0.4,0,0.7,0.3,0.7,0.7v0.2C24,19.3,23.7,19.6,23.3,19.6z M21.9,18.5c-0.2,0-0.3,0.1-0.3,0.3v0.2c0,0.2,0.1,0.3,0.3,0.3h1.4
						c0.2,0,0.3-0.1,0.3-0.3v-0.2c0-0.2-0.1-0.3-0.3-0.3H21.9z"/>
				</g>
			</g>
			<g id="XMLID_10_">
				<path id="XMLID_11_" class="st0" d="M24.9,21.6H5.1c-0.4,0-0.6-0.3-0.6-0.6v-0.2c0-0.4,0.3-0.6,0.6-0.6h19.9
					c0.4,0,0.6,0.3,0.6,0.6V21C25.6,21.3,25.3,21.6,24.9,21.6z M5.1,20.6c-0.1,0-0.2,0.1-0.2,0.2V21c0,0.1,0.1,0.2,0.2,0.2h19.9
					c0.1,0,0.2-0.1,0.2-0.2v-0.2c0-0.1-0.1-0.2-0.2-0.2H5.1z"/>
			</g>
		</g>
	</g>
</g>
</svg>
